<?xml version="1.0" encoding="UTF-8"?>
<svg xmlns="http://www.w3.org/2000/svg" viewBox="0 0 640 512" width="512" height="512">
  <path fill="#2563eb" d="M640 264v-16c0-8.84-7.16-16-16-16H344v-40h72c17.67 0 32-14.33 32-32V96c0-17.67-14.33-32-32-32H224c-17.67 0-32 14.33-32 32v64c0 17.67 14.33 32 32 32h72v40H16c-8.84 0-16 7.16-16 16v16c0 8.84 7.16 16 16 16h280v40h-72c-17.67 0-32 14.33-32 32v64c0 17.67 14.33 32 32 32h192c17.67 0 32-14.33 32-32v-64c0-17.67-14.33-32-32-32h-72v-40h280c8.84 0 16-7.16 16-16zM256 128V96h128v32H256zm128 320v-32H256v32h128z"/>
</svg>